<svg width="28" height="28" viewBox="0 0 28 28" fill="none" xmlns="http://www.w3.org/2000/svg">
<g clip-path="url(#clip0_3863_2380)">
<path d="M14.9394 24.3055C14.3597 23.9643 13.6407 23.9643 13.061 24.3055L7.50408 27.5762C6.1332 28.3832 4.45014 27.1999 4.74545 25.6368L6.03913 18.7895C6.15447 18.1789 5.95593 17.5513 5.51048 17.1182L0.563049 12.3078C-0.550483 11.2251 0.0835006 9.3351 1.62468 9.14291L8.14972 8.32919C8.79703 8.24846 9.35412 7.83307 9.61618 7.2357L12.3046 1.10772C12.9526 -0.369238 15.0479 -0.369239 15.6958 1.10772L18.3842 7.2357C18.6463 7.83307 19.2034 8.24846 19.8508 8.32919L26.3758 9.14291C27.9169 9.3351 28.5509 11.2251 27.4374 12.3078L22.4899 17.1182C22.0445 17.5513 21.8459 18.1789 21.9613 18.7895L23.255 25.6368C23.5503 27.1999 21.8672 28.3832 20.4963 27.5762L14.9394 24.3055Z" fill="#FBA919"/>
<path d="M15.5262 23.3082C14.5843 22.7537 13.4157 22.7537 12.4738 23.3082L6.91688 26.5789C6.40279 26.8814 5.77165 26.4377 5.8824 25.8516L7.17606 19.0044C7.36349 18.0123 7.04088 16.9923 6.31702 16.2885L1.36959 11.4781C0.952014 11.0721 1.18976 10.3633 1.76771 10.2912L8.29274 9.47751C9.34462 9.34634 10.2499 8.67132 10.6757 7.7006L13.3642 1.57262C13.6071 1.01876 14.3929 1.01876 14.6358 1.57262L17.3243 7.70061C17.7501 8.67132 18.6554 9.34634 19.7073 9.47751L26.2323 10.2912C26.8102 10.3633 27.048 11.0721 26.6305 11.4781L21.683 16.2885C20.9591 16.9923 20.6366 18.0123 20.824 19.0044L22.1177 25.8516C22.2284 26.4377 21.5972 26.8814 21.0831 26.5789L15.5262 23.3082Z" stroke="#0D0D0D" stroke-opacity="0.18" stroke-width="2"/>
</g>
<defs>
<clipPath id="clip0_3863_2380">
<rect width="28" height="28" rx="1.6" fill="white"/>
</clipPath>
</defs>
</svg>
