<svg width="24" height="25" viewBox="0 0 24 25" fill="none" xmlns="http://www.w3.org/2000/svg">
<path d="M13 19.25C13.0001 19.4204 13.0437 19.5879 13.1267 19.7367C13.2098 19.8855 13.3294 20.0107 13.4744 20.1002C13.6194 20.1898 13.7848 20.2408 13.955 20.2485C14.1252 20.2561 14.2946 20.2202 14.447 20.144L18.447 18.144C18.6131 18.061 18.7528 17.9334 18.8504 17.7755C18.9481 17.6176 18.9999 17.4357 19 17.25V11.486C18.9999 11.3156 18.9563 11.1481 18.8733 10.9993C18.7902 10.8505 18.6706 10.7254 18.5256 10.6358C18.3806 10.5463 18.2152 10.4952 18.045 10.4876C17.8748 10.4799 17.7054 10.5159 17.553 10.592L13.553 12.592C13.3869 12.675 13.2472 12.8026 13.1496 12.9605C13.0519 13.1184 13.0001 13.3004 13 13.486V19.25ZM17.211 8.52602C17.3769 8.44288 17.5164 8.31523 17.6138 8.15734C17.7113 7.99946 17.7629 7.81757 17.7629 7.63202C17.7629 7.44647 17.7113 7.26457 17.6138 7.10669C17.5164 6.94881 17.3769 6.82115 17.211 6.73802L12.447 4.35602C12.3082 4.28666 12.1552 4.25055 12 4.25055C11.8448 4.25055 11.6918 4.28666 11.553 4.35602L6.789 6.73802C6.62312 6.82115 6.48364 6.94881 6.38617 7.10669C6.28869 7.26457 6.23707 7.44647 6.23707 7.63202C6.23707 7.81757 6.28869 7.99946 6.38617 8.15734C6.48364 8.31523 6.62312 8.44288 6.789 8.52602L11.553 10.908C11.6918 10.9774 11.8448 11.0135 12 11.0135C12.1552 11.0135 12.3082 10.9774 12.447 10.908L17.211 8.52602V8.52602ZM6.447 10.592C6.29458 10.5159 6.12522 10.4799 5.95501 10.4876C5.78479 10.4952 5.61935 10.5463 5.47439 10.6358C5.32944 10.7254 5.20977 10.8505 5.12674 10.9993C5.04372 11.1481 5.00009 11.3156 5 11.486V17.25C5.0001 17.4357 5.05188 17.6176 5.14955 17.7755C5.24722 17.9334 5.38692 18.061 5.553 18.144L9.553 20.144C9.70542 20.2202 9.87477 20.2561 10.045 20.2485C10.2152 20.2408 10.3806 20.1898 10.5256 20.1002C10.6706 20.0107 10.7902 19.8855 10.8733 19.7367C10.9563 19.5879 10.9999 19.4204 11 19.25V13.486C10.9999 13.3004 10.9481 13.1184 10.8504 12.9605C10.7528 12.8026 10.6131 12.675 10.447 12.592L6.447 10.592V10.592Z" fill="#979797"/>
</svg>
