<svg width="22" height="20" viewBox="0 0 22 20" fill="none" xmlns="http://www.w3.org/2000/svg">
<path d="M2.73472 9.16667H4.4758C5.46453 9.16667 6.26605 9.91286 6.26605 10.8333V11.6667C6.26605 12.5871 7.06758 13.3333 8.05631 13.3333C9.04504 13.3333 9.84656 14.0795 9.84656 15V17.4542M7.16118 3.2796V4.58333C7.16118 5.73393 8.16308 6.66667 9.399 6.66667H9.84656C10.8353 6.66667 11.6368 7.41286 11.6368 8.33333C11.6368 9.25381 12.4383 10 13.4271 10C14.4158 10 15.2173 9.25381 15.2173 8.33333C15.2173 7.41286 16.0188 6.66667 17.0076 6.66667L17.9604 6.66667M13.4271 17.0732V15C13.4271 14.0795 14.2286 13.3333 15.2173 13.3333H17.9604M18.7978 10C18.7978 14.1421 15.191 17.5 10.7417 17.5C6.2924 17.5 2.68555 14.1421 2.68555 10C2.68555 5.85786 6.2924 2.5 10.7417 2.5C15.191 2.5 18.7978 5.85786 18.7978 10Z" stroke="#979797" stroke-width="1.5" stroke-linecap="round" stroke-linejoin="round"/>
</svg>
