<svg width="18" height="20" viewBox="0 0 18 20" fill="none" xmlns="http://www.w3.org/2000/svg">
<path d="M7 3.25H1" stroke="#979797" stroke-width="1.5" stroke-linecap="round"/>
<path d="M11 3.25H17" stroke="#979797" stroke-width="1.5" stroke-linecap="round"/>
<path d="M13 10.25H1" stroke="#979797" stroke-width="1.5" stroke-linecap="round"/>
<path d="M5 17.25H17" stroke="#979797" stroke-width="1.5" stroke-linecap="round"/>
<path d="M5 17.25C5 16.1454 4.10457 15.25 3 15.25C1.89543 15.25 1 16.1454 1 17.25C1 18.3546 1.89543 19.25 3 19.25C4.10457 19.25 5 18.3546 5 17.25Z" stroke="#979797" stroke-width="1.5" stroke-linecap="round"/>
<path d="M17 10.25C17 9.1454 16.1046 8.25 15 8.25C13.8954 8.25 13 9.1454 13 10.25C13 11.3546 13.8954 12.25 15 12.25C16.1046 12.25 17 11.3546 17 10.25Z" stroke="#979797" stroke-width="1.5" stroke-linecap="round"/>
<path d="M11 3.25C11 2.14543 10.1046 1.25 9 1.25C7.8954 1.25 7 2.14543 7 3.25C7 4.35457 7.8954 5.25 9 5.25C10.1046 5.25 11 4.35457 11 3.25Z" stroke="#979797" stroke-width="1.5" stroke-linecap="round"/>
</svg>
