<svg width="24" height="25" viewBox="0 0 24 25" fill="none" xmlns="http://www.w3.org/2000/svg">
<path fill-rule="evenodd" clip-rule="evenodd" d="M5.17115 6.47115C5.92126 5.72127 6.93849 5.30001 7.99915 5.30001C9.0598 5.30001 10.077 5.72127 10.8271 6.47115L11.9991 7.64215L13.1711 6.47115C13.5401 6.08911 13.9815 5.78438 14.4695 5.57475C14.9575 5.36511 15.4824 5.25477 16.0135 5.25015C16.5447 5.24554 17.0714 5.34674 17.563 5.54787C18.0545 5.74899 18.5012 6.046 18.8767 6.42157C19.2523 6.79714 19.5493 7.24375 19.7504 7.73534C19.9516 8.22692 20.0528 8.75364 20.0481 9.28476C20.0435 9.81587 19.9332 10.3408 19.7236 10.8288C19.5139 11.3168 19.2092 11.7582 18.8271 12.1272L11.9991 18.9562L5.17115 12.1272C4.42126 11.377 4 10.3598 4 9.29915C4 8.2385 4.42126 7.22126 5.17115 6.47115V6.47115Z" fill="#979797"/>
</svg>
