<svg width="24" height="25" viewBox="0 0 24 25" fill="none" xmlns="http://www.w3.org/2000/svg">
<path fill-rule="evenodd" clip-rule="evenodd" d="M7.05002 6.29999C8.36284 4.98717 10.1434 4.24963 12 4.24963C13.8566 4.24963 15.6372 4.98717 16.95 6.29999C18.2628 7.61281 19.0004 9.39338 19.0004 11.25C19.0004 13.1066 18.2628 14.8872 16.95 16.2L12 21.15L7.05002 16.2C6.39993 15.55 5.88425 14.7783 5.53242 13.9289C5.1806 13.0796 4.99951 12.1693 4.99951 11.25C4.99951 10.3307 5.1806 9.42037 5.53242 8.57104C5.88425 7.72172 6.39993 6.95001 7.05002 6.29999V6.29999ZM12 13.25C12.5304 13.25 13.0392 13.0393 13.4142 12.6642C13.7893 12.2891 14 11.7804 14 11.25C14 10.7196 13.7893 10.2109 13.4142 9.83578C13.0392 9.4607 12.5304 9.24999 12 9.24999C11.4696 9.24999 10.9609 9.4607 10.5858 9.83578C10.2107 10.2109 10 10.7196 10 11.25C10 11.7804 10.2107 12.2891 10.5858 12.6642C10.9609 13.0393 11.4696 13.25 12 13.25Z" fill="#979797"/>
</svg>
