<svg width="24" height="25" viewBox="0 0 24 25" fill="none" xmlns="http://www.w3.org/2000/svg">
<path fill-rule="evenodd" clip-rule="evenodd" d="M10 6.25077C8.93913 6.25077 7.92172 6.67219 7.17157 7.42234C6.42143 8.17248 6 9.1899 6 10.2508C6 11.3116 6.42143 12.329 7.17157 13.0792C7.92172 13.8293 8.93913 14.2508 10 14.2508C11.0609 14.2508 12.0783 13.8293 12.8284 13.0792C13.5786 12.329 14 11.3116 14 10.2508C14 9.1899 13.5786 8.17248 12.8284 7.42234C12.0783 6.67219 11.0609 6.25077 10 6.25077ZM4 10.2508C3.99988 9.30647 4.22264 8.37548 4.65017 7.53351C5.0777 6.69154 5.69792 5.96236 6.4604 5.40529C7.22287 4.84822 8.10606 4.47898 9.03815 4.3276C9.97023 4.17622 10.9249 4.24698 11.8245 4.53412C12.724 4.82126 13.5432 5.31667 14.2152 5.98006C14.8872 6.64346 15.3931 7.4561 15.6919 8.3519C15.9906 9.2477 16.0737 10.2014 15.9343 11.1353C15.795 12.0693 15.4372 12.9572 14.89 13.7268L19.707 18.5438C19.8892 18.7324 19.99 18.985 19.9877 19.2472C19.9854 19.5094 19.8802 19.7602 19.6948 19.9456C19.5094 20.131 19.2586 20.2362 18.9964 20.2384C18.7342 20.2407 18.4816 20.1399 18.293 19.9578L13.477 15.1418C12.5794 15.78 11.5233 16.1589 10.4247 16.2369C9.326 16.3148 8.22707 16.0889 7.2483 15.5837C6.26953 15.0786 5.44869 14.3138 4.87572 13.3731C4.30276 12.4324 3.99979 11.3522 4 10.2508V10.2508Z" fill="#979797"/>
</svg>
