<svg width="28" height="28" viewBox="0 0 28 28" fill="none" xmlns="http://www.w3.org/2000/svg">
<g clip-path="url(#clip0_3951_24726)">
<path d="M14.9394 24.3055C14.3597 23.9643 13.6407 23.9643 13.061 24.3055L7.50408 27.5762C6.1332 28.3832 4.45014 27.1999 4.74545 25.6368L6.03913 18.7895C6.15447 18.1789 5.95593 17.5513 5.51048 17.1182L0.563049 12.3078C-0.550483 11.2251 0.0835006 9.3351 1.62468 9.14291L8.14972 8.32919C8.79703 8.24846 9.35412 7.83307 9.61618 7.2357L12.3046 1.10772C12.9526 -0.369238 15.0479 -0.369239 15.6958 1.10772L18.3842 7.2357C18.6463 7.83307 19.2034 8.24846 19.8508 8.32919L26.3758 9.14291C27.9169 9.3351 28.5509 11.2251 27.4374 12.3078L22.4899 17.1182C22.0445 17.5513 21.8459 18.1789 21.9613 18.7895L23.255 25.6368C23.5503 27.1999 21.8672 28.3832 20.4963 27.5762L14.9394 24.3055Z" fill="#B3B3B3"/>
<path d="M15.526 23.3082C14.5841 22.7537 13.4155 22.7537 12.4736 23.3082L6.91664 26.5789C6.40255 26.8814 5.77141 26.4377 5.88215 25.8516L7.17582 19.0044C7.36325 18.0123 7.04063 16.9923 6.31678 16.2885L1.36935 11.4781C0.951769 11.0721 1.18952 10.3633 1.76746 10.2912L8.29249 9.47751C9.34437 9.34634 10.2496 8.67132 10.6755 7.7006L13.364 1.57262C13.6069 1.01876 14.3927 1.01876 14.6356 1.57262L17.324 7.70061C17.7499 8.67132 18.6552 9.34634 19.7071 9.47751L26.2321 10.2912C26.81 10.3633 27.0478 11.0721 26.6302 11.4781L21.6828 16.2885C20.9589 16.9923 20.6363 18.0123 20.8237 19.0044L22.1174 25.8516C22.2282 26.4377 21.597 26.8814 21.0829 26.5789L15.526 23.3082Z" stroke="#0D0D0D" stroke-opacity="0.18" stroke-width="2"/>
</g>
<defs>
<clipPath id="clip0_3951_24726">
<rect width="28" height="28" rx="1.6" fill="white"/>
</clipPath>
</defs>
</svg>
