<svg width="21" height="14" viewBox="0 0 21 14" fill="none" xmlns="http://www.w3.org/2000/svg">
<path fill-rule="evenodd" clip-rule="evenodd" d="M18.2118 6.50502C18.6134 6.77839 18.6134 7.2216 18.2118 7.49497L11.0123 12.395C10.6107 12.6683 9.95946 12.6683 9.55781 12.395L2.35837 7.49497C2.15751 7.35826 2.0571 7.17908 2.05713 6.99991V3.49999C2.05713 2.3402 3.43854 1.39999 5.1426 1.39999H10.2853C10.5485 1.40004 10.8116 1.46838 11.0123 1.60502L18.2118 6.50502ZM5.1426 4.19999C5.71062 4.19999 6.17109 3.88659 6.17109 3.49999C6.17109 3.11339 5.71062 2.79999 5.1426 2.79999C4.57458 2.79999 4.11411 3.11339 4.11411 3.49999C4.11411 3.88659 4.57458 4.19999 5.1426 4.19999Z" fill="#979797"/>
</svg>
